<?xml version="1.0" encoding="UTF-8"?>
<svg id="Layer_2" data-name="Layer 2" xmlns="http://www.w3.org/2000/svg" width=".55556in" height=".5556in" viewBox="0 0 40 40.0032">
  <defs>
    <style>
      .cls-1 {
        fill: #5b6770;
      }

      .cls-1, .cls-2, .cls-3, .cls-4 {
        stroke-width: 0px;
      }

      .cls-2 {
        fill: #3eb1c8;
      }

      .cls-3 {
        fill: #dad7d2;
      }

      .cls-4 {
        fill: #e5e5e5;
      }
    </style>
  </defs>
  <g id="Layer_1-2" data-name="Layer 1-2">
    <g>
      <g>
        <ellipse class="cls-3" cx="11.25854" cy="37.2653" rx="6.81154" ry="2.70712"/>
        <ellipse class="cls-1" cx="11.09645" cy="37.2653" rx="4.73919" ry="1.8835"/>
      </g>
      <g>
        <path class="cls-2" d="m35.553,19.86762c-7.59297-3.8571-15.18594,3.8571-22.77891,0V5.03264c7.59297,3.85709,15.18594-3.8571,22.77891,0-2.14275,1.38402-4.28549,3.68955-6.42824,6.39649,2.14275,2.23806,4.28549,4.87752,6.42824,8.43849Z"/>
        <g>
          <path class="cls-4" d="m12.77383,3.69018v33.57512h-3.03076V3.69018c0-.8334.68197-1.51538,1.51538-1.51538.41614,0,.79527.17049,1.07008.4453s.4453.65282.4453,1.07008Z"/>
          <circle class="cls-4" cx="11.25854" cy="2.47988" r="2.44908"/>
        </g>
      </g>
    </g>
  </g>
</svg>