<svg id="Layer_1" data-name="Layer 1" xmlns="http://www.w3.org/2000/svg" xmlns:xlink="http://www.w3.org/1999/xlink" viewBox="0 0 40 40"><defs><style>.cls-1{fill:none;}.cls-2{fill:#e6a645;}.cls-3{fill:#ffd084;}.cls-4{opacity:0.2;}.cls-5{clip-path:url(#clip-path);}.cls-6{fill:#cc8644;}.cls-7{fill:#87b31b;}.cls-8{clip-path:url(#clip-path-2);}.cls-9{fill:#bc6d26;}.cls-10{fill:#b36113;}</style><clipPath id="clip-path"><rect class="cls-1" x="5.48" y="21.04" width="29" height="9"/></clipPath><clipPath id="clip-path-2"><rect class="cls-1" x="7.59" y="13.6" width="26.3" height="6.25"/></clipPath></defs><path class="cls-2" d="M34.48,28.33a2.94,2.94,0,0,1-1.1,2.39c-2.55,1.81-7.32,3.37-13.59,3.32C13.71,34,9.09,32.5,6.57,30.72a2.93,2.93,0,0,1-1.09-2.39V25.38C7.74,27,12.92,29,20,29s12.23-2,14.5-3.66Z"/><path class="cls-3" d="M34.48,25.54C34.48,28,28,30,20,30s-14.5-2-14.5-4.5S12,21,20,21s14.5,2,14.5,4.5"/><g class="cls-4"><g class="cls-5"><path class="cls-6" d="M34.48,25.54C34.48,28,28,30,20,30s-14.5-2-14.5-4.5S12,21,20,21s14.5,2,14.5,4.5"/></g></g><path class="cls-7" d="M30,26.08c0,1.58-2.48,2.85-5.54,2.85s-5.55-1.27-5.55-2.85,2.48-2.84,5.55-2.84S30,24.51,30,26.08"/><path class="cls-7" d="M15.75,25.5c0,1.57-2.49,2.85-5.55,2.85S4.65,27.07,4.65,25.5s2.48-2.85,5.55-2.85,5.55,1.28,5.55,2.85"/><path class="cls-2" d="M6,12.2C8.14,5.72,17.53,5.11,23.63,6.7,29,8.11,35.83,11.85,33.91,18.9"/><path class="cls-3" d="M33.89,18.9c0,.33-.31.57-.81.72-2.71.83-11.52-.75-15.4-1.88-3-.87-7.59-2.07-10.09-3.39a6.09,6.09,0,0,1-1.14-.73c-.57-.45-.79-.94-.5-1.42,1-1.66,6.77-1.1,13.09.29C25,13.8,33,16.4,33.81,18.51a.78.78,0,0,1,.08.39"/><g class="cls-4"><g class="cls-8"><path class="cls-6" d="M33.89,18.9c0,.33-.31.57-.81.72-2.71.83-11.52-.75-15.4-1.88-3-.87-7.59-2.07-10.09-3.39,1.86-.66,3.87-1.44,12.9.36a61.5,61.5,0,0,1,13.32,3.8.78.78,0,0,1,.08.39"/></g></g><path class="cls-9" d="M37.48,22.74c0,1.72-2.21,2.65-4.29,2.88s-4.74-.46-7.82,0-5.32,1.88-8.89,1.57S6,26,3.76,24.22A6.15,6.15,0,0,1,2.55,21.6a3,3,0,0,1,1.21-2.78,8,8,0,0,0,1.59-2A3.68,3.68,0,0,1,7.5,15.78a21.33,21.33,0,0,1,11.14,0C22.8,17,25.46,17.19,27.12,18a18.47,18.47,0,0,0,5.57,1.65l.13,0,.51.1a8.74,8.74,0,0,1,2.6.93,2.57,2.57,0,0,1,1.55,2.07"/><path class="cls-10" d="M33.33,19.74c-11.71,1-22.68-.9-28-2.88A3.68,3.68,0,0,1,7.5,15.78a21.33,21.33,0,0,1,11.14,0C22.8,17,25.46,17.19,27.12,18a18.47,18.47,0,0,0,5.57,1.65l.13,0,.51.1"/><path class="cls-10" d="M37.48,22.74c0,1.72-2.21,2.65-4.29,2.88s-4.74-.46-7.82,0-5.32,1.88-8.89,1.57S6,26,3.76,24.22A6.15,6.15,0,0,1,2.55,21.6c2.93,2.63,5.93.44,12.07,3C17.29,25.78,19.48,23,24,24c4,.85,4.67-1.93,8.07-.85s3.83-2.48,3.83-2.48h0a2.57,2.57,0,0,1,1.55,2.07"/></svg>