<svg id="Layer_1" data-name="Layer 1" xmlns="http://www.w3.org/2000/svg" viewBox="0 0 40 40"><defs><style>.cls-1{fill:#e2e1e0;}.cls-2{fill:#f5f1ef;}.cls-3{fill:#7e8ab0;}.cls-4{fill:#d18631;}.cls-5{fill:#ffb449;}</style></defs><path class="cls-1" d="M25.64,34c4.82-2.41,10.19-15.55,10.6-16.86s.95-2-.26-2.74a11.33,11.33,0,0,0-3.81-1.54"/><path class="cls-2" d="M35.58,12.42c.13.61-1,3.25-2.28,6.13-.23.5-.48,1-.71,1.53-1.18,2.49-2.4,4.94-3,6.2-.26.52-.52,1-.78,1.45-1.22,2.14-2.28,3.58-2.08,4.61A1.45,1.45,0,0,1,25,34.07c-.7-.18-7.79-2.45-10.4-2.8S6.75,29.42,6.29,28s2.07-4.24,3.76-6.75c.3-.45.58-.89.81-1.31.05-.07.09-.16.15-.26.74-1.34,2.06-3.78,3.42-6.24l.91-1.62c1.07-1.87,2.08-3.59,2.81-4.66a1.3,1.3,0,0,1,1.24-.61A12.34,12.34,0,0,1,24.13,8a18.92,18.92,0,0,0,7.28,2.92c3,.55,4,.74,4.17,1.48"/><path class="cls-3" d="M33.3,18.55c-.23.5-.48,1-.71,1.53a13,13,0,0,0-2.46-.61,16.92,16.92,0,0,1-6.47-2.26,20.83,20.83,0,0,0-9.23-3.77l.91-1.62a21.67,21.67,0,0,1,9,3.84,15.51,15.51,0,0,0,6,2.07,11.47,11.47,0,0,1,3,.82"/><path class="cls-3" d="M29.55,26.28c-.26.52-.52,1-.78,1.45a14.69,14.69,0,0,0-2.42-.57A16.88,16.88,0,0,1,19.93,25a21.15,21.15,0,0,0-9.88-3.73c.3-.45.58-.89.81-1.31.05-.07.09-.16.15-.26a22.09,22.09,0,0,1,9.58,3.81,15.79,15.79,0,0,0,6,2,11.88,11.88,0,0,1,3,.79"/><path class="cls-4" d="M29.88,21a1.46,1.46,0,0,0-2,.27l-4.68,6.19-.3-.3,5.26-7.95a1.43,1.43,0,0,0-.54-1.95,1.46,1.46,0,0,0-2,.35l-5,7.27-.28-.28,5.08-8.55a1.43,1.43,0,0,0-.56-1.94,1.46,1.46,0,0,0-2,.37l-4.8,7.85-.25-.24,3.26-6.51a1.43,1.43,0,0,0-.71-1.89,1.46,1.46,0,0,0-2,.53l-4,7.83c.48-3.13-.92-4.21-1.78-4.36a.5.5,0,0,0-.57.39l-1.76,8.83A7.26,7.26,0,0,0,14,35.24a7.45,7.45,0,0,0,9.72-2.9l.88-1.49L30.33,23a1.43,1.43,0,0,0-.45-2"/><path class="cls-5" d="M9.72,13.24l1.34.44a.31.31,0,0,1,0,.59l-1.34.44A2.68,2.68,0,0,0,8,16.41l-.43,1.35a.32.32,0,0,1-.6,0l-.43-1.35a2.64,2.64,0,0,0-1.71-1.7L3.5,14.27a.31.31,0,0,1,0-.59l1.34-.44a2.64,2.64,0,0,0,1.71-1.7L7,10.19a.32.32,0,0,1,.6,0L8,11.54a2.66,2.66,0,0,0,1.71,1.7"/><path class="cls-5" d="M14.14,6.42l1,.3a.27.27,0,0,1,0,.51l-1,.31a2,2,0,0,0-1.3,1.3l-.31.95a.26.26,0,0,1-.5,0l-.31-.95a2,2,0,0,0-1.3-1.3l-.95-.31a.27.27,0,0,1,0-.51l.95-.3a2,2,0,0,0,1.3-1.31l.31-1a.26.26,0,0,1,.5,0l.31,1a2,2,0,0,0,1.3,1.31"/></svg>