<svg id="Layer_1" data-name="Layer 1" xmlns="http://www.w3.org/2000/svg" viewBox="0 0 45 45"><defs><style>.cls-1,.cls-2{fill:#dfe7e8;}.cls-2{opacity:0.7;}.cls-3{fill:#fffdfa;}.cls-4{fill:none;stroke:#dd0031;stroke-linecap:round;stroke-linejoin:round;stroke-width:0.7px;}.cls-5{fill:#f2b6a4;}.cls-6{fill:#e8a191;}.cls-7{fill:#ffdeda;}</style></defs><rect class="cls-1" x="3.82" y="5.77" width="27.35" height="1.27" rx="0.64"/><path class="cls-2" d="M30.25,12.09h0a.11.11,0,0,1-.11-.11L30.38,7H4.61L4.85,12a.11.11,0,0,1-.11.11h0A2.24,2.24,0,0,0,2.5,14.33v.27a.43.43,0,0,0,.43.43H4.52a.5.5,0,0,1,.5.48l.55,11.38a1,1,0,0,0,1,.95H28.43a1,1,0,0,0,1-.95L30,15.51a.51.51,0,0,1,.5-.48h1.59a.43.43,0,0,0,.43-.43v-.27A2.24,2.24,0,0,0,30.25,12.09Z"/><path class="cls-3" d="M13.59,12.46a24.48,24.48,0,0,1-7.11-1.15l.6,14.77a.28.28,0,0,0,.29.28H27.62a.3.3,0,0,0,.3-.28l.54-13.42a20,20,0,0,0-6.92-1.35C17.83,11.31,17.38,12.46,13.59,12.46Z"/><line class="cls-4" x1="15.73" y1="25.11" x2="15.73" y2="9.13"/><line class="cls-4" x1="19.26" y1="9.13" x2="15.73" y2="9.13"/><line class="cls-4" x1="19.26" y1="13.13" x2="15.73" y2="13.13"/><line class="cls-4" x1="19.26" y1="17.12" x2="15.73" y2="17.12"/><line class="cls-4" x1="19.26" y1="21.12" x2="15.73" y2="21.12"/><line class="cls-4" x1="19.26" y1="25.11" x2="15.73" y2="25.11"/><path class="cls-5" d="M42.5,25.55c0,2.86-4.58,1.95-6.41,5.61s-9.15,10.07-15.56,7.32c-1.83-.91-3.66,2.75-8.24-.91-2.53-2-.86-5.74,2.07-9h0a21.45,21.45,0,0,1,8-5.68c5.49-1.83,11.9-3.66,15.56,0a3.74,3.74,0,0,0,2.66.91c1.07.06,1.92.12,1.92,1.72"/><path class="cls-6" d="M42.5,25.55c0,2.86-4.58,1.95-6.41,5.61s-9.15,10.07-15.56,7.32c-1.83-.91-3.66,2.75-8.24-.91-2.53-2-.86-5.74,2.07-9-3.9,6.22,1.84,9.39,5.31,6.26S23,32.35,23,32.35l-2.38,2.52c-1.17,1.69-1.27,2.48,3.55,1.92s7.1-3.71,8.29-5,.33-5.43,4-5.53,6.59-1.19,4.26-2.29a.82.82,0,0,1-.21-.11c1.07.06,1.92.12,1.92,1.72"/><path class="cls-7" d="M20.53,38.48c-.91-1.83,0-4.58,4.58-7.32,0,0-8.24,3.66-6.34,7.42Z"/><path class="cls-7" d="M24.79,36.55c-1.83-1.83-.54-3.28.91-1.83.92.91,1.83,0,1.83-.92s.92-2.75,1.83-.92.92-.91,2.75-1.83,0,.92-.93,2.75-1.82.92-2.73,1.83-1.83,2.75-3.66.92"/><path class="cls-7" d="M14.77,29.44c-1.78,2.18-2.61,4.25-2.34,5.86s.92-.46,1.78.57.44,1.4,2.28,2-1-1.36-1.16-2.83c-.24-1.88-.05-2.09-.91-1.34s-.94-1.88,1.42-4.06.49-2.14-1.07-.24"/></svg>