<svg id="Layer_1" data-name="Layer 1" xmlns="http://www.w3.org/2000/svg" viewBox="0 0 40 40"><defs><style>.cls-1{fill:#e0b271;}.cls-2{fill:#c68943;}.cls-3{fill:#b47637;}.cls-4{fill:#249d6b;}.cls-5{fill:#dd0031;}.cls-6{fill:#939899;}</style></defs><rect x="5.5" y="13.17" width="29" height="5"/><path class="cls-1" d="M19,16.17H8a.5.5,0,0,1-.5-.5V8.17h12v7.5a.5.5,0,0,1-.5.5"/><path class="cls-2" d="M19.5,8.17H7.5l.86-1.72a.51.51,0,0,1,.45-.28h9.38a.51.51,0,0,1,.45.28Z"/><polygon class="cls-3" points="31.5 6.17 22.5 6.17 23.5 4.17 30.5 4.17 31.5 6.17"/><rect class="cls-4" x="9.5" y="12.17" width="8" height="2"/><path class="cls-1" d="M31,16.17H23a.5.5,0,0,1-.5-.5V6.17h9v9.5a.5.5,0,0,1-.5.5"/><rect class="cls-5" x="22.5" y="12.17" width="7" height="2"/><rect x="5.5" y="27.17" width="29" height="5"/><rect class="cls-6" x="3.5" y="6.17" width="2" height="32" rx="0.5"/><rect class="cls-6" x="34.5" y="6.17" width="2" height="32" rx="0.5"/><path class="cls-1" d="M28,30.17H12a.5.5,0,0,1-.5-.5v-7.5h17v7.5a.5.5,0,0,1-.5.5"/><path class="cls-2" d="M28.5,22.17h-17l.86-1.72a.51.51,0,0,1,.45-.28H27.19a.51.51,0,0,1,.45.28Z"/><rect class="cls-4" x="13.5" y="26.17" width="13" height="2"/><path class="cls-1" d="M31.5,6.17,34.18,3.5a.52.52,0,0,0,0-.68L33.53,2a.49.49,0,0,0-.73,0l-2.3,2.2"/><path class="cls-1" d="M22.5,6.17,19.82,3.5a.51.51,0,0,1,0-.68L20.47,2a.49.49,0,0,1,.73,0l2.3,2.2"/></svg>